# xmcd
#
# Track frame offsets:
#	150
#	11665
#	24535
#	40636
#	55242
#	72807
#	88409
#	102206
#	115482
#	131675
#	143145
#	155655
#	172571
#	184195
#	198629
#	214983
#	236648
#	249636
#	262877
#	276578
#	291133
#	307025
#	324509
#	337362
#
# Disc length: 4634 seconds
#
# Revision: 0
# Processed by: cddbd v1.5.2PL0 Copyright (c) Steve Scherf et al.
# Submitted via: audiograbber 1.83.01
#
DISCID=73121818
DTITLE=Freddy Quinn - Schön war die Zeit CD 3
DYEAR=1900
DGENRE=
TTITLE0=Hundert Mann und ein Befehl
TTITLE1=Als ich noch ein Junge war
TTITLE2=Heimweh
TTITLE3=Junge komm bald wieder
TTITLE4=La Paloma
TTITLE5=Nimm uns mit Kapitän auf die Reise
TTITLE6=Vergangen, vergessen, vorüber
TTITLE7=Seemann deine Heimat
TTITLE8=Eine Hand voll Reis
TTITLE9=Die Gitarre und das Meer
TTITLE10=Heimatlos
TTITLE11=Der Junge von  St.Pauli
TTITLE12=Mutter, sei nicht traurig
TTITLE13=Kleine Möwe flieg nach Helgoland
TTITLE14=Allein unter Fremden
TTITLE15=Das Zuchthauslied
TTITLE16=Auf einem Seemannsgrab
TTITLE17=Wann kommt das Glück auch zu mir
TTITLE18=Weit ist der Weg
TTITLE19=Auch Matrosen haben eine Heimat
TTITLE20=Einsamkeit
TTITLE21=Happy Birthday
TTITLE22=Unter fremden Sternen
TTITLE23=Kein schöner Land in dieser Zeit
EXTD=
EXTT0=
EXTT1=
EXTT2=
EXTT3=
EXTT4=
EXTT5=
EXTT6=
EXTT7=
EXTT8=
EXTT9=
EXTT10=
EXTT11=
EXTT12=
EXTT13=
EXTT14=
EXTT15=
EXTT16=
EXTT17=
EXTT18=
EXTT19=
EXTT20=
EXTT21=
EXTT22=
EXTT23=
PLAYORDER=
